#!OML:ASF F:\VICON\USERDATA\INSTALL\rory3\rory3.ASF
:FULLY-SPECIFIED
:DEGREES
3281
root -2.92347 17.9315 12.7704 718.315 -48.3823 1.2166
lowerback 10.49 -5.13954 -5.89832
upperback 0.0392706 -7.41165 3.09813
thorax -4.65216 -3.51825 7.57879
lowerneck 5.43893 -18.3609 -15.8013
upperneck 33.1823 -33.8053 13.1906
head 16.3951 -16.2806 2.54815
rclavicle -6.13748e-014 1.82882e-014
rhumerus -38.7663 -9.75783 -77.0333
rradius 39.7957
rwrist 0.844682
rhand -16.6854 8.59055
rfingers 7.12502
rthumb 9.5389 -21.1735
lclavicle -6.13748e-014 1.82882e-014
lhumerus -35.5127 10.2105 82.0405
lradius 33.7662
lwrist -5.76261
lhand -16.332 27.2728
lfingers 7.12502
lthumb 9.87985 57.021
rfemur -15.0104 2.16883 23.9032
rtibia 30.5239
rfoot -9.82563 -5.46869
rtoes 21.0574
lfemur -1.49713 4.61352 -19.0496
ltibia 36.7162
lfoot -7.05097 3.63508
ltoes -17.3046
3282
root -2.86262 17.9265 12.7332 718.392 -47.8006 1.17201
lowerback 10.4486 -5.19305 -5.97016
upperback -0.0450723 -7.48934 3.12006
thorax -4.69348 -3.55031 7.65157
lowerneck 5.48419 -18.3569 -15.876
upperneck 33.228 -33.8042 13.1797
head 16.4243 -16.2893 2.55505
rclavicle 7.87187e-014 3.97569e-015
rhumerus -39.0465 -9.674 -77.019
rradius 39.812
rwrist 0.666898
rhand -16.9256 8.22946
rfingers 7.12502
rthumb 9.3071 -21.5451
lclavicle 7.87187e-014 3.97569e-015
lhumerus -35.4501 10.1253 82.1527
lradius 33.8266
lwrist -5.79751
lhand -16.0832 27.421
lfingers 7.12502
lthumb 10.1199 57.1577
rfemur -15.4447 2.22503 23.8432
rtibia 30.8007
rfoot -9.67292 -5.91898
rtoes 21.1558
lfemur -0.534719 4.17996 -19.0603
ltibia 35.019
lfoot -8.15042 3.53193
ltoes -18.2762
3283
root -2.79504 17.9202 12.6919 718.529 -47.1346 1.10111
lowerback 10.4788 -5.32637 -6.01701
upperback -0.16575 -7.67461 3.14022
thorax -4.79829 -3.63164 7.73148
lowerneck 5.37758 -18.349 -15.737
upperneck 33.3988 -33.7085 12.9198
head 16.4091 -16.2419 2.45704
rclavicle 9.17391e-014 -1.11319e-014
rhumerus -39.218 -9.80885 -76.9583
rradius 39.5976
rwrist 1.05805
rhand -16.7444 8.15231
rfingers 7.12502
rthumb 9.48196 -21.6144
lclavicle 9.17391e-014 -1.11319e-014
lhumerus -35.4443 10.1253 82.216
lradius 33.9286
lwrist -5.68631
lhand -16.0594 27.3652
lfingers 7.12502
lthumb 10.1428 57.1007
rfemur -15.9159 2.06171 23.792
rtibia 31.0259
rfoot -9.48221 -6.28683
rtoes 21.091
lfemur 0.272561 3.54988 -19.0459
ltibia 33.2037
lfoot -9.05638 3.29323
ltoes -20.1443
3284
root -2.72738 17.9107 12.6528 718.583 -46.4526 1.13138
lowerback 10.4615 -5.43801 -6.15517
upperback -0.206187 -7.84024 3.13048
thorax -4.78655 -3.70996 7.81526
lowerneck 5.20653 -18.3682 -15.5146
upperneck 33.4561 -33.6652 12.8011
head 16.3806 -16.1937 2.38431
rclavicle 3.34952e-014 -7.95139e-015
rhumerus -39.2935 -10.1159 -76.8302
rradius 39.3735
rwrist 1.64473
rhand -16.2978 8.58023
rfingers 7.12502
rthumb 9.91281 -21.1664
lclavicle 3.34952e-014 -7.95139e-015
lhumerus -35.3093 10.0482 82.3075
lradius 34.1098
lwrist -5.5048
lhand -16.2239 27.3365
lfingers 7.12502
lthumb 9.98417 57.0797
rfemur -16.3985 1.70238 23.6586
rtibia 31.2922
rfoot -9.27867 -6.60966
rtoes 20.5339
lfemur 1.05123 2.79055 -19.1498
ltibia 31.2821
lfoot -9.75669 3.36743
ltoes -23.9882
3285
root -2.65742 17.9003 12.6126 718.677 -45.8309 1.07227
lowerback 10.486 -5.47763 -6.2054
upperback -0.229616 -7.90038 3.13673
thorax -4.80724 -3.73662 7.86088
lowerneck 5.15973 -18.3844 -15.5103
upperneck 33.4132 -33.6911 12.898
head 16.4002 -16.1905 2.40703
rclavicle 8.14023e-014 -3.33958e-014
rhumerus -39.5654 -9.97065 -76.8468
rradius 39.5725
rwrist 1.4927
rhand -16.2154 8.40261
rfingers 7.12502
rthumb 9.99231 -21.3402
lclavicle 8.14023e-014 -3.33958e-014
lhumerus -35.0698 9.7742 82.5119
lradius 34.2598
lwrist -5.18558
lhand -16.144 27.4096
lfingers 7.12502
lthumb 10.0612 57.1491
rfemur -16.9079 1.53243 23.5884
rtibia 31.6391
rfoot -9.08186 -7.06738
rtoes 20.1675
lfemur 1.79245 2.09418 -19.2049
ltibia 29.3001
lfoot -10.3631 3.79747
ltoes -27.1665
3286
root -2.58792 17.8903 12.5691 718.606 -45.2731 1.30405
lowerback 10.5228 -5.49981 -6.51064
upperback -0.332078 -7.97079 3.14057
thorax -4.88317 -3.75634 8.05477
lowerneck 5.22448 -18.3155 -15.6683
upperneck 33.432 -33.6108 12.9716
head 16.437 -16.1701 2.47508
rclavicle 7.8023e-015 -3.18055e-015
rhumerus -40.0115 -9.49514 -76.912
rradius 40.0091
rwrist 0.976417
rhand -16.0166 7.70416
rfingers 7.12502
rthumb 10.1841 -22.0293
lclavicle 7.8023e-015 -3.18055e-015
lhumerus -34.9524 9.64896 82.7557
lradius 34.4037
lwrist -4.9889
lhand -16.3684 27.231
lfingers 7.12502
lthumb 9.84478 56.9808
rfemur -17.49 1.55275 23.271
rtibia 32.0473
rfoot -8.9792 -7.5646
rtoes 20.6126
lfemur 2.38757 1.54705 -19.4725
ltibia 27.3799
lfoot -10.7417 4.04509
ltoes -27.4574
3287
root -2.52586 17.8845 12.5249 718.376 -44.7159 1.96564
lowerback 10.3205 -5.50775 -7.1253
upperback -0.429613 -8.0517 3.01171
thorax -4.79577 -3.78348 8.24678
lowerneck 5.22688 -18.2675 -15.6414
upperneck 33.4879 -33.5508 13.003
head 16.4575 -16.1387 2.49916
rclavicle -9.83984e-015 1.98785e-014
rhumerus -40.2668 -9.63489 -76.8823
rradius 40.1032
rwrist 0.975787
rhand -15.4868 7.70142
rfingers 7.12502
rthumb 10.6952 -22.0064
lclavicle -9.83984e-015 1.98785e-014
lhumerus -34.7476 9.55068 82.8623
lradius 34.4866
lwrist -4.89774
lhand -16.9208 26.9414
lfingers 7.12502
lthumb 9.31172 56.7158
rfemur -18.247 1.44017 22.6352
rtibia 32.4989
rfoot -8.88786 -7.95741
rtoes 20.3218
lfemur 2.7168 1.15226 -20.0543
ltibia 25.6784
lfoot -10.848 3.82826
ltoes -25.59
3288
root -2.46243 17.8834 12.4729 718.232 -44.1086 2.58491
lowerback 10.1232 -5.50631 -7.75326
upperback -0.48655 -8.11953 2.8672
thorax -4.67 -3.80781 8.42464
lowerneck 5.12483 -18.2582 -15.5479
upperneck 33.5366 -33.5727 13.1137
head 16.522 -16.1183 2.51176
rclavicle 1.31198e-014 1.86858e-014
rhumerus -40.3232 -10.2168 -76.7949
rradius 39.9118
rwrist 1.50275
rhand -15.1487 8.11429
rfingers 7.12502
rthumb 11.0213 -21.5764
lclavicle 1.31198e-014 1.86858e-014
lhumerus -34.3959 9.33986 82.9062
lradius 34.559
lwrist -4.78759
lhand -17.0457 26.8534
lfingers 7.12502
lthumb 9.19121 56.6331
rfemur -19.0959 1.33045 22.039
rtibia 33.0022
rfoot -8.75819 -8.41415
rtoes 19.7111
lfemur 2.82939 1.01928 -20.5621
ltibia 24.2285
lfoot -10.8369 3.32039
ltoes -23.7553
3289
root -2.39584 17.8849 12.4157 718.166 -43.5021 3.13564
lowerback 10.016 -5.52937 -8.39562
upperback -0.580045 -8.22417 2.80486
thorax -4.61127 -3.84451 8.71602
lowerneck 5.0323 -18.2238 -15.5078
upperneck 33.4963 -33.5137 13.2213
head 16.5289 -16.0723 2.55225
rclavicle 8.09551e-014 2.38542e-015
rhumerus -40.1835 -10.8216 -76.5445
rradius 39.3447
rwrist 2.4114
rhand -14.8972 8.58688
rfingers 7.12502
rthumb 11.2639 -21.0907
lclavicle 8.09551e-014 2.38542e-015
lhumerus -34.1758 9.39756 82.929
lradius 34.7769
lwrist -4.92484
lhand -16.8369 26.8255
lfingers 7.12502
lthumb 9.39267 56.5962
rfemur -19.9487 1.33718 21.4689
rtibia 33.4806
rfoot -8.617 -8.9405
rtoes 19.4149
lfemur 2.7084 1.28547 -20.9975
ltibia 23.0856
lfoot -10.9721 3.01768
ltoes -24.7708
3290
root -2.32813 17.8797 12.3627 718.063 -42.9468 3.71652
lowerback 9.88291 -5.52634 -8.97481
upperback -0.670429 -8.28514 2.69963
thorax -4.5577 -3.86089 8.9186
lowerneck 4.94391 -18.1696 -15.3918
upperneck 33.4712 -33.3887 13.2559
head 16.4902 -15.9978 2.57761
rclavicle -3.09607e-014 -2.14687e-014
rhumerus -39.9347 -11.6054 -76.2817
rradius 38.5676
rwrist 2.99381
rhand -15.0212 8.97225
rfingers 7.12502
rthumb 11.1443 -20.7118
lclavicle -3.09607e-014 -2.14687e-014
lhumerus -34.0672 9.61473 82.9124
lradius 35.1187
lwrist -5.26781
lhand -16.6 26.7546
lfingers 7.12502
lthumb 9.62127 56.5149
rfemur -20.7135 1.34228 20.8412
rtibia 33.8251
rfoot -8.39956 -9.35777
rtoes 19.3284
lfemur 2.36724 1.64795 -21.4997
ltibia 22.3743
lfoot -11.2653 2.95537
ltoes -25.6955
